<svg id="Capa_1" enable-background="new 0 0 512 512" height="512" viewBox="0 0 512 512" width="512" xmlns="http://www.w3.org/2000/svg" xmlns:xlink="http://www.w3.org/1999/xlink"><linearGradient id="SVGID_1_" gradientUnits="userSpaceOnUse" x1="256" x2="256" y1="466" y2="136"><stop offset="0" stop-color="#00b59c"/><stop offset="1" stop-color="#9cffac"/></linearGradient><linearGradient id="SVGID_2_" gradientUnits="userSpaceOnUse" x1="407" x2="407" y1="466" y2="46"><stop offset="0" stop-color="#c3ffe8"/><stop offset=".9973" stop-color="#f0fff4"/></linearGradient><g><g><g><path d="m302 346h-197c-8.291 0-15 6.709-15 15s6.709 15 15 15h197c16.538 0 30 13.462 30 30s-13.462 30-30 30-30-13.462-30-30c0-8.291-6.709-15-15-15s-15 6.709-15 15c0 33.091 26.909 60 60 60s60-26.909 60-60-26.909-60-60-60zm-257-90h197c33.091 0 60-26.909 60-60s-26.909-60-60-60-60 26.909-60 60c0 8.291 6.709 15 15 15s15-6.709 15-15c0-16.538 13.462-30 30-30s30 13.462 30 30-13.462 30-30 30h-197c-8.291 0-15 6.709-15 15s6.709 15 15 15zm392-90c-41.353 0-75 33.647-75 75 0 8.291 6.709 15 15 15s15-6.709 15-15c0-24.814 20.186-45 45-45s45 20.186 45 45-20.186 45-45 45h-422c-8.291 0-15 6.709-15 15s6.709 15 15 15h422c41.353 0 75-33.647 75-75s-33.647-75-75-75z" fill="url(#SVGID_1_)"/></g></g><g><g><path d="m407 436c-8.284 0-15 6.716-15 15s6.716 15 15 15 15-6.716 15-15-6.716-15-15-15zm60-300c8.284 0 15-6.716 15-15s-6.716-15-15-15-15 6.716-15 15 6.716 15 15 15zm0 210c-24.814 0-45 20.186-45 45s20.186 45 45 45 45-20.186 45-45-20.186-45-45-45zm-120-300c-24.814 0-45 20.186-45 45s20.186 45 45 45 45-20.186 45-45-20.186-45-45-45z" fill="url(#SVGID_2_)"/></g></g></g></svg>